<svg width="25" height="24" viewBox="0 0 25 24" fill="none" xmlns="http://www.w3.org/2000/svg">
<mask id="mask0_5_2" style="mask-type:alpha" maskUnits="userSpaceOnUse" x="0" y="0" width="25" height="24">
<path d="M12.4607 23.9213C19.0664 23.9213 24.4213 18.5664 24.4213 11.9607C24.4213 5.35497 19.0664 0 12.4607 0C5.85497 0 0.5 5.35497 0.5 11.9607C0.5 18.5664 5.85497 23.9213 12.4607 23.9213Z" fill="#D9D9D9"/>
</mask>
<g mask="url(#mask0_5_2)">
<path d="M19.0177 21.8352C18.9628 21.8746 18.9 21.9138 18.8451 21.953C18.7824 21.9922 18.7275 22.0314 18.6647 22.0628C18.6098 22.0942 18.5628 22.1254 18.5079 22.1568C18.5 22.1648 18.4922 22.1648 18.4843 22.1726C18.3039 22.2824 18.1157 22.3844 17.9275 22.4784C17.8726 22.5098 17.8098 22.5412 17.7549 22.5648C17.7549 22.5648 17.7471 22.5726 17.7392 22.5726C17.6765 22.604 17.6137 22.6352 17.551 22.6666C17.4255 22.7294 17.2922 22.7844 17.1667 22.8392C17.1039 22.8706 17.0333 22.8942 16.9706 22.9176C16.9079 22.9412 16.8373 22.9726 16.7745 22.996C16.7118 23.0196 16.6412 23.051 16.5784 23.0746C16.5784 23.0746 16.5784 23.0746 16.5706 23.0746C16.5079 23.098 16.4373 23.1216 16.3745 23.145C16.2333 23.1922 16.0843 23.2392 15.9432 23.2862C15.8961 23.302 15.8412 23.3176 15.7941 23.3334C15.6451 23.3804 15.4961 23.4196 15.3471 23.451C15.2922 23.4666 15.2373 23.4746 15.1745 23.4902C15.0333 23.5216 14.8843 23.553 14.7432 23.5844C14.7118 23.5922 14.6883 23.5922 14.6569 23.6C14.6098 23.6078 14.5549 23.6156 14.5079 23.6236C14.4373 23.6314 14.3745 23.647 14.3039 23.6548C14.2726 23.6628 14.2412 23.6628 14.2098 23.6706C14.1706 23.6784 14.1235 23.6862 14.0765 23.6862C13.951 23.702 13.8177 23.7176 13.6922 23.7334C13.653 23.7412 13.6059 23.7412 13.5667 23.749H13.5588C13.5039 23.7568 13.449 23.7568 13.3941 23.7648C13.3392 23.7726 13.2843 23.7726 13.2294 23.7726C13.1981 23.7726 13.1588 23.7804 13.1275 23.7804C13.0647 23.7804 13.0098 23.7882 12.9549 23.7882C12.8765 23.7882 12.8059 23.796 12.7275 23.796C12.649 23.796 12.5784 23.796 12.5 23.796C12.4451 23.796 12.3902 23.796 12.3353 23.796C9.0255 23.749 6.05296 22.345 3.92746 20.1176C3.92746 20.1176 3.92746 20.1098 3.91962 20.1098C3.68432 19.898 3.88826 18.7686 4.83728 18.0549C6.02942 17.1529 8.88434 16.5882 8.88434 16.5882C8.88434 16.5882 9.99022 16.4078 14.0922 17.2627C16.4922 17.7647 18.3196 18.4941 19.3392 20.4706C19.551 20.8784 19.7628 21.5058 19.0177 21.8352Z" fill="#EFFAFF"/>
<path d="M14.1157 17.1765C15.6216 17.4824 17.2294 17.8118 18.4687 18.8078C18.8843 19.1451 19.1589 19.6392 19.3863 20.1176C19.4961 20.353 19.6059 20.596 19.6922 20.855C19.7393 21.0274 19.8098 21.2236 19.7706 21.4274C19.7628 21.4824 19.7157 21.553 19.6765 21.5922C19.4961 21.7726 19.3 21.8824 19.104 22.0236C17.951 22.8236 16.6255 23.3882 15.253 23.6862C12.1942 24.353 8.88434 23.8352 6.19416 22.2274C5.30004 21.6862 4.4765 21.0274 3.77062 20.251C3.6922 20.1568 3.6922 20 3.6922 19.898C3.70004 19.6627 3.76278 19.4353 3.84122 19.2235C4.02944 18.7373 4.27258 18.251 4.68828 17.9137C4.98632 17.7098 5.30788 17.5373 5.6373 17.3961C6.67258 16.9569 7.76278 16.651 8.88434 16.5255C8.97846 16.5176 8.99416 16.651 8.90004 16.6667C7.82552 16.8863 6.75886 17.2157 5.76278 17.6627C5.402 17.8431 5.01768 18 4.72748 18.2824C4.45298 18.5804 4.2569 18.949 4.10004 19.3255C3.99808 19.5529 3.92748 19.9137 3.95886 20.0942C4.45298 20.6824 5.03336 21.2 5.66082 21.647C9.09612 24.047 14.3118 24.204 17.9667 22.204C18.2961 22.0236 18.6177 21.8196 18.9236 21.6078C19.0726 21.5058 19.2294 21.4196 19.3471 21.302C19.3549 21.2942 19.3471 21.302 19.3471 21.3098C19.3471 21.3176 19.3393 21.3254 19.3393 21.3254C19.3471 21.2314 19.3157 21.1058 19.2765 20.9804C19.1353 20.5254 18.9079 20.047 18.6647 19.6314C18.2804 19.0118 17.6294 18.6196 16.9706 18.3059C16.5157 18.0941 16.0373 17.9294 15.551 17.7725C15.0647 17.6157 14.5706 17.4824 14.0765 17.3647C13.951 17.3333 13.9902 17.1529 14.1157 17.1765Z" fill="#111827"/>
<path d="M20.0921 22.949C19.9431 21.7882 19.2843 19.8353 18.8843 19.3098C18.4451 18.7372 18.2647 18.5568 16.798 18.0627C16.7196 17.6706 16.4294 16.6823 16.0843 16.2666C15.5588 15.4745 14.1235 15.2941 13.6921 15.3882C13.6921 15.3882 11.3706 14.5725 8.69606 14.5725C7.849 14.7608 6.86862 15.1451 6.33528 15.9529C5.9745 16.4863 6.38234 16.6588 6.20194 17.1451C6.1549 17.2706 5.05686 17.898 4.6098 18.2745C4.40588 18.4392 4.17842 18.8549 4.02156 19.3961C3.70784 20.502 4.04508 22.0314 3.65292 23.3646C2.89998 25.9372 1.37057 26.7058 1.37057 26.7058H21.6372C21.6216 26.698 20.4137 25.396 20.0921 22.949Z" fill="#EFFAFF"/>
<path d="M19.9745 22.9648C19.8177 21.9372 19.5039 20.9176 19.1039 19.9608C18.9079 19.4981 18.6098 19.051 18.1941 18.7765C17.9824 18.6432 17.7471 18.5412 17.5039 18.4392C17.2608 18.3451 17.0098 18.2588 16.7667 18.1726C16.7275 18.1569 16.6961 18.1255 16.6883 18.0863C16.6569 17.9294 16.6177 17.7804 16.5706 17.6236C16.3667 16.9883 16.1471 16.2824 15.551 15.9138C15.0961 15.6392 14.5549 15.5059 14.0294 15.4824C13.9275 15.4824 13.8177 15.4824 13.7235 15.4981H13.6922C13.6843 15.4981 13.6686 15.4981 13.6608 15.4902C13.2843 15.3098 12.8686 15.2 12.4608 15.0902C11.2373 14.8079 9.95884 14.6902 8.70394 14.6824C7.93532 14.8628 6.8608 15.2863 6.39022 16.0706C6.31178 16.1961 6.27256 16.3216 6.28826 16.4628C6.30394 16.6196 6.35884 16.7922 6.31962 16.9569C6.30394 17.0275 6.28826 17.1059 6.25688 17.1687C6.19414 17.2549 6.09218 17.3098 6.01374 17.3647C5.6059 17.6314 5.19022 17.8667 4.79806 18.1412C4.66472 18.2353 4.53924 18.3216 4.44512 18.4549C4.1706 18.8471 4.0059 19.3177 3.93532 19.7883C3.80982 20.7452 3.93532 21.7176 3.80982 22.6746C3.66864 23.6314 3.30002 24.5568 2.78238 25.3726C2.42159 25.9216 1.98237 26.4314 1.42551 26.7844L1.37061 26.5648H21.6372L21.551 26.7608C21.3156 26.4942 21.1274 26.204 20.955 25.898C20.4216 25.004 20.1079 23.9922 19.9745 22.9648ZM20.2098 22.9334C20.2961 23.6 20.4608 24.2588 20.7118 24.8862C20.9628 25.5058 21.2764 26.1098 21.7156 26.6196C21.7784 26.6902 21.7236 26.8236 21.6294 26.8156H1.36276C1.30002 26.8156 1.24512 26.7608 1.24512 26.698C1.24512 26.651 1.26865 26.6118 1.30786 26.596C1.43335 26.5254 1.55884 26.4236 1.67649 26.3216C2.70394 25.396 3.34708 24.0236 3.55884 22.6588C3.73924 21.3804 3.40198 20 3.97452 18.7843C4.10786 18.502 4.27256 18.2039 4.53924 18.0236C5.0255 17.6628 5.55884 17.3961 6.03728 17.0432C6.04512 17.0432 6.04512 17.0353 6.04512 17.0353C6.03728 17.0432 6.02944 17.0588 6.02944 17.0667C6.0765 16.9569 6.09218 16.8628 6.0765 16.7373C6.05296 16.5804 6.01374 16.3687 6.06864 16.2039C6.09218 16.1098 6.13924 16.0236 6.1863 15.953C6.751 15.1059 7.74708 14.7294 8.6961 14.5177C8.96276 14.5255 9.23728 14.4785 9.50394 14.4785C9.87256 14.4785 10.249 14.5334 10.6177 14.5804C11.6765 14.7451 12.6961 15.0275 13.7392 15.2549L13.6686 15.2471C13.9118 15.2 14.1392 15.2236 14.3745 15.2549C15.8804 15.4824 16.3902 16.1412 16.7981 17.5451C16.8451 17.702 16.8843 17.8588 16.9235 18.0236L16.8451 17.9294C17.5981 18.1961 18.4451 18.4392 18.9235 19.1373C19.0961 19.349 19.2216 19.6 19.3314 19.851C19.7314 20.855 20.0451 21.8666 20.2098 22.9334Z" fill="#111827"/>
<path d="M7.73139 17.7883C8.31179 19.0275 9.21375 20.0784 10.2883 20.9098C10.3275 20.9412 10.2883 21.004 10.2412 20.9804C9.28435 20.5256 8.47649 19.749 7.99807 18.8079C7.84121 18.4941 7.70787 18.1569 7.66081 17.8039C7.64513 17.7647 7.70787 17.749 7.73139 17.7883Z" fill="#111827"/>
<path d="M16.9157 18.0471C16.9393 19.3569 16.4059 20.698 15.3863 21.5452C15.3628 21.5686 15.3314 21.5608 15.3079 21.5372C15.2844 21.5138 15.2922 21.4824 15.3157 21.4588C15.5432 21.2392 15.7706 21.0118 15.9432 20.7452C16.304 20.2274 16.5236 19.6157 16.6255 18.9961C16.6726 18.6902 16.704 18.3608 16.6804 18.0549C16.6726 17.9059 16.9079 17.8902 16.9157 18.0471Z" fill="#111827"/>
<path d="M12.2961 21.1608C12.1157 21.796 11.9667 22.4862 12.0529 23.1452C12.0765 23.2942 11.849 23.3334 11.8176 23.1764C11.7784 22.8156 11.8255 22.4628 11.8882 22.1176C11.9588 21.7726 12.0451 21.4432 12.1627 21.1138C12.1941 21.0354 12.3274 21.0746 12.2961 21.1608Z" fill="#111827"/>
<path d="M14.7902 21.0432C15.049 21.6 15.2294 22.1804 15.3706 22.7686C15.3863 22.8314 15.3471 22.8942 15.2843 22.9098C15.2216 22.9254 15.1588 22.8862 15.1431 22.8236C15.0647 22.3844 14.9627 21.9452 14.8216 21.5138C14.7745 21.3726 14.7275 21.2314 14.6726 21.0902C14.6412 21.0196 14.751 20.9648 14.7902 21.0432Z" fill="#111827"/>
<path d="M6.36666 17.1137C6.65686 18.6981 7.77058 20.0392 9.11176 20.8942C9.56666 21.1844 10.0529 21.4352 10.5549 21.6392C10.5863 21.655 10.602 21.6862 10.5863 21.7176C10.5784 21.749 10.5392 21.7648 10.5157 21.749C9.99804 21.5608 9.49608 21.3254 9.0255 21.0432C8.06862 20.4784 7.22942 19.6941 6.6647 18.7373C6.37452 18.2432 6.14706 17.7255 6.03726 17.1608C6.02156 17.0667 6.08432 16.9804 6.17844 16.9647C6.2647 16.9412 6.35882 17.0118 6.36666 17.1137Z" fill="#111827"/>
<path d="M11.8255 23.3176C11.6058 23.2942 11.449 23.0902 11.496 22.8706L11.5823 22.455C11.6137 22.2902 11.7706 22.1726 11.9353 22.196C12.1 22.2118 12.2333 22.353 12.2333 22.5254V22.949C12.2411 23.1686 12.0529 23.3412 11.8255 23.3176Z" fill="#111827"/>
<path d="M15.4412 23.0274C15.2294 23.1058 15.002 22.9804 14.9471 22.7608L14.8451 22.3452C14.8059 22.1804 14.8922 22.0156 15.0569 21.953C15.2137 21.898 15.3941 21.9686 15.4647 22.1176L15.6529 22.502C15.7471 22.7138 15.6529 22.9568 15.4412 23.0274Z" fill="#111827"/>
<path d="M19.0647 22.7922C19.0647 22.7922 19.5039 25.255 19.3314 26.698" stroke="#111827" stroke-width="5.1257" stroke-miterlimit="10" stroke-linecap="round" stroke-linejoin="round"/>
<path d="M8.82154 16.8314C8.71174 16.5177 8.66468 16.1961 8.6882 15.8667C8.6882 15.8353 8.71174 15.8196 8.74312 15.8196C8.76664 15.8196 8.79016 15.8431 8.79016 15.8667C8.8137 16.1647 8.89998 16.4706 9.04116 16.7294C9.11174 16.8863 8.87644 16.9882 8.82154 16.8314Z" fill="#111827"/>
<path d="M14.1235 17.2471C13.9039 16.753 13.3627 16.502 12.8843 16.3294C12.5863 16.2353 12.2568 16.1647 11.9431 16.1177C11.1823 16 10.1078 15.8196 9.34704 15.7412C9.3392 15.7412 9.3392 15.7255 9.34704 15.7255C9.56666 15.702 9.78626 15.702 10.0059 15.702C10.6647 15.7177 11.3235 15.7882 11.9745 15.8902C12.6255 15.9922 13.3235 16.1882 13.8176 16.6588C13.9745 16.8235 14.1157 17.0118 14.1549 17.2392C14.1627 17.2628 14.1314 17.2706 14.1235 17.2471Z" fill="#111827"/>
<path d="M14.8529 19.2628C14.6882 20.0706 13.6215 20.5568 11.8254 19.8275C9.95878 19.0745 9.15094 17.2784 8.94702 16.7451C10.0529 14.6745 9.28428 13.2392 9.28428 13.2392C11.8333 13.0196 14.0607 16 14.0607 16L14.4058 17.4745C14.4372 17.6 14.5 17.7098 14.5941 17.7882C14.7588 18.0784 14.9549 18.7451 14.8529 19.2628Z" fill="#EFFAFF"/>
<path d="M8.90785 16.7686C9.05687 16.5412 9.15099 16.2745 9.21373 16.0157C9.33137 15.4745 9.37059 14.9255 9.37843 14.3765V14.1726C9.35491 13.9686 9.28431 13.7569 9.20589 13.5686C9.10393 13.3177 9.47255 13.1608 9.59019 13.4118C9.60589 13.4432 9.60589 13.4981 9.60589 13.5294C9.62941 14.5961 9.67647 15.9686 9.00197 16.8549C8.95491 16.902 8.86079 16.8314 8.90785 16.7686Z" fill="#111827"/>
<path d="M14.147 15.9843C14.2647 16.0549 14.3039 16.1491 14.3196 16.2432C14.3666 16.4314 14.3509 16.6353 14.398 16.8314C14.4372 17.0196 14.5549 17.2 14.5862 17.3961C14.6255 17.6 14.7431 18.0314 14.7902 18.2432C14.8059 18.2902 14.7745 18.3451 14.7196 18.353C14.6882 18.3608 14.6647 18.353 14.6411 18.3373C14.5392 18.251 14.4921 18.1647 14.4294 18.0549C14.3274 17.8667 14.2568 17.6942 14.1941 17.4824C14.1392 17.2942 14.1627 17.0902 14.1157 16.8942C14.0764 16.7059 13.9666 16.5255 13.9274 16.3294C13.9039 16.2353 13.896 16.1334 13.9666 16.0157C14.0137 15.9687 14.0921 15.953 14.147 15.9843Z" fill="#111827"/>
<path d="M14.7118 18.0549C13.2137 17.9765 11.9902 17.5059 10.798 15.3804C11.802 16.2667 12.9863 16.6039 14.2333 16.7608L14.398 17.4824C14.4294 17.6079 14.6176 17.9765 14.7118 18.0549Z" fill="#111827"/>
<path d="M14.649 17.7647C14.9157 18.2667 15.0726 18.8941 14.9079 19.451C14.7824 19.8431 14.4216 20.1334 14.0294 20.2432C13.1196 20.4862 12.0687 20.102 11.2608 19.6706C10.2647 19.1137 9.52748 18.1804 9.05688 17.1608C9.02552 17.0824 9.13532 17.0196 9.18238 17.098C9.34708 17.4275 9.53532 17.749 9.74708 18.0392C9.95884 18.3373 10.202 18.6118 10.4765 18.8549C11.2765 19.5765 12.3588 20.0236 13.4412 20.0236C14.5549 19.9922 14.9785 19.4039 14.7196 18.3216C14.6804 18.149 14.6177 17.9686 14.5314 17.8196C14.4843 17.7569 14.602 17.6863 14.649 17.7647Z" fill="#111827"/>
<path d="M17.6843 8.3451C17.8255 9.00392 17.8961 9.53726 17.5118 11.2941C17.1353 13.0431 17.8647 14.8078 16.0137 16.4157C14.7667 17.498 12.5863 17.702 10.8451 16.5177C10.2569 16.1177 10.1 14.251 9.63728 13.5373C9.4412 13.2392 9.32354 13.7177 8.87648 13.2235C8.25688 12.549 7.51178 11.1922 7.8804 8.79216C8.47648 4.90196 11.5588 4.44706 13.8412 4.87844C16.1314 5.3098 17.3079 6.61176 17.6843 8.3451Z" fill="#EFFAFF"/>
<path d="M9.2608 13.9137C9.0804 13.6157 8.85296 13.3569 8.6412 13.0824C8.32746 12.6588 8.09218 12.1726 7.9353 11.6706C7.2608 9.52159 7.62158 6.72159 9.61374 5.38041C11.4569 4.13335 14.9784 4.50981 16.5941 6.01569C17.402 6.74511 17.849 7.80393 17.9431 8.87059C17.9902 9.58433 17.8177 10.2745 17.6686 10.9647C17.4961 11.6392 17.4569 12.3137 17.4569 13.0118C17.449 13.7098 17.4177 14.4392 17.151 15.098C16.7432 16.102 15.8882 16.9177 14.8608 17.2627C13.5118 17.7333 11.9196 17.4667 10.8137 16.5647C10.7667 16.5255 10.8137 16.4627 10.8686 16.4863C12.3196 17.3098 14.2255 17.451 15.6373 16.502C16.4765 15.9373 17.0569 15.0431 17.1902 14.0392C17.3 13.3569 17.2686 12.6667 17.3314 11.9765C17.3549 11.6706 17.4412 11.2471 17.5039 10.9412C17.5981 10.4314 17.6608 9.92159 17.653 9.41177C17.6451 8.90981 17.5353 8.41569 17.3863 7.93727C16.8686 6.23531 15.3863 5.23139 13.6765 4.95687C11.1196 4.50981 8.88432 5.45883 8.21766 8.11765C7.92746 9.41961 7.70002 10.8549 8.24904 12.1176C8.44512 12.5961 8.76668 13.0039 9.1353 13.3569L9.4961 13.7412C9.65296 13.898 9.38628 14.102 9.2608 13.9137Z" fill="#111827"/>
<path d="M10.1862 11.4196C10.1862 11.4196 9.9431 10.2431 8.798 10.3843C7.80976 10.5098 7.46466 12.8784 9.7078 13.5373" fill="#EFFAFF"/>
<path d="M9.60587 12.5098C9.42547 12.4079 9.29999 12.2353 9.29213 12.0235C9.29999 11.8667 9.32351 11.6863 9.28429 11.5294C9.26077 11.3804 9.10392 11.3412 8.98626 11.349C8.86078 11.3726 8.78233 11.5294 8.75881 11.6549C8.75881 11.6628 8.75097 11.6863 8.75097 11.6941C8.74311 11.7333 8.68038 11.7333 8.6647 11.6941C8.56274 11.3882 8.79017 11.051 9.11959 11.0902C9.58233 11.1216 9.64507 11.6079 9.55881 11.9765C9.51175 12.1333 9.57449 12.2745 9.66077 12.4079L9.67645 12.4314C9.71567 12.4784 9.65293 12.5412 9.60587 12.5098Z" fill="#111827"/>
<path d="M15.8804 10.5883C15.998 11.1451 16.2176 11.6628 16.4921 12.149C16.7353 12.7451 16.1078 13.3098 15.5509 13.2863C15.4882 13.2863 15.4804 13.2 15.5353 13.1843C15.8882 13.0745 16.2098 12.8392 16.2647 12.4784C16.2882 12.3686 16.2568 12.2745 16.2019 12.1804C15.9431 11.6941 15.7862 11.1373 15.8255 10.5883C15.8255 10.549 15.8804 10.549 15.8804 10.5883Z" fill="#111827"/>
<path d="M10.1471 11.4275C9.96667 10.9647 9.57451 10.5255 9.04903 10.5333C9.00197 10.5255 8.92353 10.5412 8.87647 10.5412C8.74313 10.549 8.63333 10.5961 8.53137 10.6902C8.02941 11.1922 8.11569 12.0784 8.52353 12.6353C8.66471 12.8314 8.84509 13.0039 9.04903 13.1451C9.25295 13.2863 9.48039 13.3961 9.72353 13.4902C9.77843 13.5059 9.75491 13.5922 9.70001 13.5843C9.17451 13.4745 8.67255 13.2157 8.32745 12.7843C7.79411 12.1412 7.68431 11.0667 8.31961 10.4392C8.46079 10.3137 8.65687 10.2196 8.85295 10.2196C8.91569 10.2196 9.00981 10.2039 9.07255 10.2196C9.40197 10.2353 9.71569 10.4 9.91961 10.6588C10.1 10.8784 10.202 11.1451 10.2333 11.4118C10.2333 11.4588 10.1628 11.4745 10.1471 11.4275Z" fill="#111827"/>
<path d="M15.2843 14.0706C14.7824 14.549 13.8334 14.1647 13.5824 13.5843C13.551 13.5137 13.6294 13.451 13.6922 13.4824C13.8255 13.553 13.9432 13.6235 14.0687 13.6784C14.4294 13.8432 14.8059 13.9765 15.2059 13.9373C15.2843 13.9216 15.3392 14.0157 15.2843 14.0706Z" fill="#111827"/>
<path d="M12.9549 11.3882C12.7667 11.3804 12.6255 11.2235 12.6412 11.0353L12.649 10.8157C12.6569 10.6275 12.8137 10.4863 13.002 10.502C13.1902 10.5098 13.3314 10.6667 13.3157 10.8549L13.3079 11.0745C13.3 11.2549 13.1432 11.3961 12.9549 11.3882Z" fill="#111827"/>
<path d="M16.2569 11.5059C16.0843 11.4981 15.951 11.349 15.9588 11.1765L15.9667 10.9726C15.9745 10.8 16.1235 10.6667 16.2961 10.6745C16.4686 10.6824 16.602 10.8314 16.5941 11.0039L16.5863 11.2079C16.5784 11.3804 16.4294 11.5137 16.2569 11.5059Z" fill="#111827"/>
<path d="M13.6608 10.9647C13.402 10.7922 13.1196 10.6745 12.8059 10.7373C12.704 10.753 12.602 10.7843 12.5393 10.8549C12.5157 10.8863 12.4608 10.8785 12.4608 10.8314C12.4687 10.6745 12.602 10.5726 12.7275 10.5098C12.9706 10.3843 13.3079 10.4079 13.5275 10.5726C13.6059 10.6196 13.8726 10.9098 13.7314 10.9726C13.7 10.9883 13.6844 10.9804 13.6608 10.9647Z" fill="#111827"/>
<path d="M15.9039 11.0039C15.9039 10.6745 16.3118 10.5569 16.5628 10.6745C16.7039 10.7373 16.8059 10.8628 16.8451 11.0118C16.8608 11.0588 16.7902 11.0981 16.7588 11.0588C16.6255 10.902 16.3981 10.8235 16.2177 10.9177C16.1628 10.949 16.1549 10.9726 16.1392 11.0039C16.1392 11.1608 15.9118 11.153 15.9039 11.0039Z" fill="#111827"/>
<path d="M14.0373 9.67061C14.202 9.72551 14.3667 9.57649 14.3353 9.39609C14.3196 9.30197 14.2804 9.20785 14.202 9.13727C13.9667 8.92551 12.9941 8.73727 12.4059 9.01179C11.8883 9.26277 13.2844 9.41963 14.0373 9.67061Z" fill="#111827"/>
<path d="M16.3824 9.79609C16.2491 9.84315 16.1079 9.70197 16.1314 9.53727C16.1393 9.45099 16.1707 9.36473 16.2334 9.30197C16.4216 9.11375 17.0648 8.96473 17.4726 9.25491C17.8256 9.49805 16.9942 9.56865 16.3824 9.79609Z" fill="#111827"/>
<path d="M18.0393 5.78768C18.1805 5.45828 18.1805 5.0975 17.9452 4.78376C17.2629 3.8818 15.1531 4.56416 13.9766 4.18768C12.2119 3.61514 10.0237 3.54456 8.73738 5.6622C8.41581 6.19554 8.25896 6.34456 7.80406 6.76808C7.33346 7.2073 6.96484 8.01514 6.93346 9.12102C6.86288 11.3406 8.60404 13.27 8.60404 13.27C8.69032 13.3877 8.76876 13.4896 8.83934 13.5759C9.4668 14.3289 9.66288 15.7798 9.47464 13.4896C7.5217 12.7367 7.87464 10.5485 8.82366 10.4308C9.82758 10.3053 10.1413 11.1995 10.1962 11.4191C10.8707 10.9877 10.6276 10.07 10.5491 9.21514C11.0746 8.97984 11.5217 8.41514 11.757 7.90534C12.0158 8.26612 12.3295 8.54848 12.706 8.57984C13.106 8.61906 13.3413 8.2818 13.4197 7.80338C13.9374 8.48572 14.855 9.33278 16.2982 9.4975C16.9884 9.57592 17.5609 9.28572 17.9452 8.8073C18.0472 8.82298 18.1413 8.83082 18.2354 8.82298C19.2472 8.72102 20.3766 6.67396 18.0393 5.78768Z" fill="#111827"/>
<path d="M9.30785 11.6628C9.30785 11.6628 8.68041 11.5686 8.72747 12.4471C8.75099 12.8941 8.75099 13.1373 8.74315 13.2628C8.73531 13.349 8.79021 13.4275 8.86863 13.4588C8.96275 13.498 9.06471 13.4588 9.11177 13.3647C9.18237 13.2392 9.26079 13.0667 9.26079 12.9255C9.26079 12.6902 9.51177 12.4784 9.51177 12.4784C9.51177 12.4784 9.28433 12.2824 9.30785 11.6628Z" fill="#EFFAFF"/>
<path d="M9.28432 11.6863C9.28432 11.6941 9.29216 11.702 9.3 11.702C9.3 11.702 9.3 11.702 9.29216 11.702H9.27648C8.9 11.7333 8.78236 12.0627 8.79804 12.4C8.80588 12.6196 8.82158 12.8392 8.81372 13.051C8.82942 13.1686 8.75882 13.3255 8.87648 13.3882C8.94706 13.4274 9.04118 13.3961 9.07256 13.3176C9.14314 13.1765 9.21372 13.0353 9.21372 12.8784C9.2451 12.698 9.36274 12.5569 9.48824 12.4471V12.5098C9.32354 12.3373 9.28432 12.102 9.26078 11.8823C9.26862 11.8274 9.26862 11.7412 9.28432 11.6863ZM9.33922 11.6314C9.36274 11.851 9.36274 12.0784 9.45686 12.2745C9.4804 12.3294 9.51962 12.3922 9.56666 12.4314C9.59804 12.4549 9.59804 12.502 9.56666 12.5255C9.45686 12.6274 9.36274 12.7529 9.34706 12.8941C9.34706 13.0667 9.27648 13.2314 9.19804 13.3804C9.1353 13.5137 8.9549 13.5843 8.82158 13.5059C8.7353 13.4588 8.67256 13.3647 8.67256 13.2628C8.67256 13.1843 8.6804 13.1216 8.6804 13.0431C8.6804 12.8235 8.6647 12.6118 8.65686 12.3922C8.65686 12.251 8.6647 12.0863 8.72746 11.9451C8.80588 11.7255 9.04902 11.5765 9.28432 11.6157C9.30784 11.6157 9.33138 11.6235 9.33922 11.6314Z" fill="#111827"/>
<path d="M9.20589 20.949C9.46471 19.8196 9.12747 18.549 8.83727 17.4196C8.71963 16.9726 8.60197 16.549 8.54707 16.1804C8.44511 15.5608 8.51571 14.9726 8.76669 14.4235C9.07257 13.7412 9.0255 13.1608 9.0255 13.1373L8.86865 13.153C8.86865 13.1608 8.91571 13.7255 8.62551 14.3608C8.36669 14.9333 8.28825 15.553 8.39021 16.2039C8.45295 16.5804 8.56274 17.0118 8.6804 17.4588C8.9706 18.5647 9.3 19.8196 9.04902 20.9098C8.90784 21.5138 9.18237 22.502 9.57453 23.4902C9.63727 23.498 9.69217 23.5058 9.75491 23.5138C9.35491 22.5254 9.07257 21.5294 9.20589 20.949Z" fill="#111827"/>
<path d="M8.75099 12.902C8.75883 13.0745 8.75099 13.1922 8.75099 13.2627C8.74315 13.349 8.79805 13.4274 8.87649 13.4588C8.97061 13.498 9.07257 13.4588 9.11963 13.3647C9.19021 13.2392 9.26865 13.0667 9.26865 12.9255C9.26865 12.9176 9.26865 12.902 9.26865 12.8941C9.11177 12.9569 8.92355 13.0039 8.75099 12.902Z" fill="#EFFAFF"/>
<path d="M8.77451 12.9333C8.78235 13.0431 8.79019 13.1451 8.79019 13.2549C8.78235 13.302 8.79803 13.349 8.82941 13.3882C8.93137 13.4902 9.07255 13.4274 9.11175 13.302C9.17451 13.1765 9.22941 13.0431 9.22941 12.902L9.28431 12.9412C9.11175 12.9725 8.93137 13.0196 8.76667 12.949C8.76667 12.949 8.77451 12.9412 8.77451 12.9333ZM8.73529 12.8627C8.75097 12.8627 8.78235 12.8706 8.79803 12.8863C8.93921 12.9882 9.11961 12.9412 9.26077 12.8627C9.28431 12.8471 9.32353 12.8706 9.31569 12.902C9.30783 13.0823 9.23725 13.2549 9.14313 13.4118C9.05685 13.5294 8.87647 13.5372 8.77451 13.4353C8.72745 13.3882 8.70391 13.3098 8.71175 13.2471C8.71175 13.1137 8.72745 12.9882 8.73529 12.8627Z" fill="#111827"/>
<path d="M16.1392 18.1177C16.2726 17.1922 16.1471 16.5333 16.1 16.3372C16.0765 16.3529 16.0608 16.3765 16.0373 16.3921C16.0138 16.4157 15.9902 16.4314 15.9667 16.4549C16.0138 16.7059 16.1 17.302 15.9824 18.0941C15.9275 18.4627 15.9118 19.0431 15.9039 19.7177C15.8883 20.3686 15.6843 21.9922 15.4412 23.5294C15.4961 23.5138 15.551 23.498 15.6059 23.4902C15.849 21.9686 16.0451 20.3764 16.0608 19.7255C16.0765 19.051 16.0843 18.4784 16.1392 18.1177Z" fill="#111827"/>
<path d="M23.104 6.61177C27.8648 15.7804 19.4961 26.1254 9.51963 23.6C5.04119 22.4862 1.44118 18.6039 0.696087 14.0471C-0.150972 9.51373 1.89609 4.64315 5.72355 2.07845C10.9706 -1.5294 18.2412 -0.329401 21.998 4.83139C22.0216 4.85491 22.0138 4.89413 21.9824 4.91767C21.9588 4.94119 21.9196 4.93335 21.896 4.90197C21.3784 4.23531 20.7902 3.63139 20.1471 3.09021C19.0882 2.18825 17.849 1.48236 16.5392 1.00393C9.87257 -1.41175 2.55491 2.60393 1.09609 9.57649C-0.550972 17.3882 6.09217 24.5804 14.0137 23.5058C20.1235 22.7372 24.6648 17.098 24.1628 10.9647C24.053 9.48237 23.6608 8.01571 23.0098 6.66669C22.9942 6.64315 23.0098 6.61177 23.0334 6.59609C23.0568 6.58041 23.0882 6.58825 23.104 6.61177Z" fill="#111827"/>
</g>
</svg>
